<?xml version="1.0" encoding="UTF-8"?>
<svg xmlns="http://www.w3.org/2000/svg" id="Layer_1" data-name="Layer 1" viewBox="0 0 100 100" width="512" height="512"><path d="M82.57,81.17H4.72A2.72,2.72,0,0,1,2,78.44V21.92a1,1,0,0,1,1-1H84.3a1,1,0,0,1,1,1V78.44A2.73,2.73,0,0,1,82.57,81.17ZM4,22.92V78.44a.72.72,0,0,0,.72.73H82.57a.73.73,0,0,0,.73-.73V22.92Z"/><path d="M84.3,22.92H3a1,1,0,0,1-.79-1.62L15.76,4.24a2.75,2.75,0,0,1,2.14-1H69.39a2.73,2.73,0,0,1,2.14,1L85.08,21.3a1,1,0,0,1-.78,1.62Zm-79.23-2H82.23L70,5.49a.72.72,0,0,0-.57-.28H17.9a.72.72,0,0,0-.57.28Z"/><path d="M50.57,22.92H36.73a1,1,0,0,1-.76-.34,1,1,0,0,1-.24-.8L38.25,4.07a1,1,0,0,1,1-.86h8.8a1,1,0,0,1,1,.86l2.52,17.71a1,1,0,0,1-.24.8A1,1,0,0,1,50.57,22.92Zm-12.69-2H49.41L47.18,5.21H40.11Z"/><path d="M36.73,39.25a1,1,0,0,1-.41-.08,1,1,0,0,1-.59-.92V21.92a1,1,0,0,1,1-1H50.57a1,1,0,0,1,1,1V38.25a1,1,0,0,1-.6.92A1,1,0,0,1,49.9,39l-6.25-5.63L37.39,39A1,1,0,0,1,36.73,39.25Zm1-16.33V36L43,31.29a1,1,0,0,1,1.33,0L49.57,36V22.92Z"/><path d="M26.24,70.87a1,1,0,0,1-1-1V57.55a1,1,0,0,1,2,0V69.87A1,1,0,0,1,26.24,70.87Z"/><path d="M29.41,61.72a1,1,0,0,1-.71-.29L26.24,59l-2.46,2.46a1,1,0,0,1-1.42,0,1,1,0,0,1,0-1.41l3.17-3.17a1,1,0,0,1,1.41,0L30.11,60a1,1,0,0,1-.7,1.7Z"/><path d="M15,70.87a1,1,0,0,1-1-1V57.55a1,1,0,0,1,2,0V69.87A1,1,0,0,1,15,70.87Z"/><path d="M18.19,61.72a1,1,0,0,1-.71-.29L15,59l-2.46,2.46a1,1,0,0,1-1.42,0,1,1,0,0,1,0-1.41l3.17-3.17a1,1,0,0,1,1.41,0L18.89,60a1,1,0,0,1-.7,1.7Z"/><path d="M94.94,85.74a1,1,0,0,1-.46-.11,1,1,0,0,1-.42-1.35A17.23,17.23,0,0,0,67.78,63.06a1,1,0,1,1-1.27-1.54A19.23,19.23,0,0,1,95.83,85.2,1,1,0,0,1,94.94,85.74Z"/><path d="M78.78,95.55A19.23,19.23,0,0,1,61,68.91a1,1,0,0,1,1.31-.53,1,1,0,0,1,.54,1.3A17.23,17.23,0,0,0,89.75,89.6,1,1,0,1,1,91,91.14,19.18,19.18,0,0,1,78.78,95.55Z"/><path d="M89.88,96.79h-.09a1,1,0,0,1-.91-1.09l.42-4.43-4.42-.42a1,1,0,0,1,.18-2l5.42.52a1,1,0,0,1,.68.35,1,1,0,0,1,.23.73l-.52,5.42A1,1,0,0,1,89.88,96.79Z"/><path d="M72.57,63.8h-.1l-5.42-.51a1,1,0,0,1-.68-.35,1,1,0,0,1-.22-.74l.51-5.42a1,1,0,0,1,1.09-.9,1,1,0,0,1,.9,1.09l-.42,4.43,4.43.41a1,1,0,0,1-.09,2Z"/></svg>
