<svg width="81" height="81" viewBox="0 0 81 81" fill="none" xmlns="http://www.w3.org/2000/svg">
<path d="M47.0002 56.4942L59.1019 37.0352C59.1414 36.9723 59.1745 36.9061 59.2003 36.8375C61.29 33.4296 62.3934 29.5367 62.3934 25.5623C62.3934 13.6389 52.6931 3.93848 40.7699 3.93848C28.8466 3.93848 19.1455 13.6389 19.1455 25.5623C19.1455 29.5375 20.2505 33.4321 22.3418 36.8423C22.366 36.902 22.3943 36.9602 22.4282 37.0167L34.0955 56.5426C25.0385 57.8228 19.0825 61.547 19.0825 66.0647C19.0825 71.6623 28.5948 76.046 40.7376 76.046C52.8803 76.046 62.3926 71.6615 62.3926 66.0647C62.3934 61.526 56.1598 57.7187 47.0002 56.4942ZM24.5155 35.7518C22.5864 32.6814 21.5669 29.1582 21.5669 25.5623C21.5669 14.974 30.1808 6.35995 40.7699 6.35995C51.3581 6.35995 59.972 14.974 59.972 25.5623C59.972 29.1598 58.9525 32.683 57.0243 35.7518C56.9839 35.8164 56.9508 35.8834 56.9242 35.9528L44.1389 56.5087C43.9468 56.8034 43.9089 56.8703 43.674 57.2562L40.4454 62.4478L24.6236 35.9698C24.5954 35.8947 24.559 35.8213 24.5155 35.7518ZM40.7384 73.6245C29.4036 73.6245 21.5048 69.6396 21.5048 66.0647C21.5048 62.8199 27.4535 59.7624 35.4548 58.8156L39.3856 65.3947C39.6027 65.7572 39.9918 65.9807 40.4139 65.984C40.4171 65.984 40.4212 65.984 40.4244 65.984C40.8425 65.984 41.2315 65.7677 41.4527 65.4125L45.5853 58.768C53.7141 59.6486 59.9712 62.7836 59.9712 66.0647C59.972 69.6404 52.0732 73.6245 40.7384 73.6245Z" fill="black"/>
<path d="M48.6009 25.5627C48.6009 21.2275 45.0736 17.7002 40.7384 17.7002C36.4032 17.7002 32.876 21.2275 32.876 25.5627C32.876 29.898 36.4032 33.4253 40.7384 33.4253C45.0736 33.4253 48.6009 29.898 48.6009 25.5627ZM35.2974 25.5627C35.2974 22.5625 37.7383 20.1217 40.7384 20.1217C43.7386 20.1217 46.1794 22.5625 46.1794 25.5627C46.1794 28.5629 43.7394 31.0038 40.7384 31.0038C37.7374 31.0038 35.2974 28.5629 35.2974 25.5627Z" fill="black"/>
</svg>
