<svg width="88" height="66" viewBox="0 0 88 66" fill="none" xmlns="http://www.w3.org/2000/svg">
<path d="M87.577 1.00827C87.3099 0.62692 86.9446 0.343028 86.5342 0.17567C86.1129 0.00389272 85.6405 -0.0487929 85.1732 0.0483189L1.88612 17.0012C1.02914 17.1737 0.336728 17.8103 0.0946933 18.6536C-0.150819 19.4929 0.0891114 20.4028 0.721129 21.0068L15.0126 34.8055L17.3126 52.1332C17.4217 52.9644 17.9655 53.6724 18.7346 53.9963C18.7434 53.9998 18.75 54.0024 18.7587 54.006C19.5249 54.3184 20.402 54.2026 21.0619 53.7081L28.6781 47.9977L46.3896 65.0901C46.6067 65.3009 46.8591 65.4623 47.1362 65.5754C47.5074 65.7268 47.9123 65.7824 48.3206 65.73C49.0287 65.6419 49.6552 65.2355 50.0327 64.6282L87.6503 3.59412C88.142 2.79408 88.113 1.77924 87.577 1.00827ZM7.21796 20.7259L71.5582 7.62757L18.7225 32.0006C18.5754 31.8057 18.4652 31.5826 18.286 31.4103L7.21796 20.7259ZM19.6858 34.1833C19.685 34.1727 19.6802 34.1657 19.6794 34.1551L79.0759 6.75996L21.4283 47.3096L19.6858 34.1833ZM47.5554 59.6593L31.9525 44.6003C31.5807 44.245 31.1441 43.9982 30.6985 43.7859L77.5548 10.9894L47.5554 59.6593Z" fill="#333333"/>
</svg>
