<svg width="81" height="81" viewBox="0 0 81 81" fill="none" xmlns="http://www.w3.org/2000/svg">
<g clip-path="url(#clip0_928_120)">
<path d="M78.8745 62.4872L62.4798 51.5538C60.3993 50.1775 57.6104 50.6304 56.0723 52.5945L51.2967 58.7347C50.6829 59.544 49.5673 59.7787 48.6794 59.2855L47.771 58.7847C44.7596 57.1433 41.0126 55.0998 33.4632 47.5476C25.9137 39.9955 23.8661 36.2457 22.2247 33.2398L21.7266 32.3314C21.2266 31.4437 21.4569 30.3233 22.2664 29.7046L28.4025 24.9305C30.3659 23.3922 30.8194 20.6041 29.4446 18.5229L18.5112 2.12824C17.1023 0.00894988 14.2757 -0.627249 12.0945 0.683902L5.23886 4.80211C3.08477 6.0685 1.5044 8.11945 0.829127 10.5252C-1.63958 19.5203 0.217603 35.0443 23.086 57.9154C41.2772 76.1052 54.8198 80.9969 64.128 80.9969C66.2703 81.0061 68.4041 80.7274 70.4722 80.1682C72.8784 79.4937 74.9296 77.9132 76.1953 75.7585L80.3176 68.9069C81.6306 66.7253 80.9947 63.8969 78.8745 62.4872ZM77.9917 67.5219L73.8789 74.3776C72.9701 75.9328 71.4948 77.0763 69.7619 77.5685C61.458 79.8484 46.9504 77.96 24.9958 56.0055C3.04127 34.0509 1.15308 19.5446 3.43292 11.2394C3.92581 9.50447 5.07071 8.02723 6.62784 7.11707L13.4835 3.00424C14.4299 2.43479 15.6567 2.71082 16.2681 3.63047L22.2073 12.5472L27.1921 20.0237C27.7891 20.9265 27.593 22.1364 26.7413 22.8044L20.6038 27.5786C18.736 29.0068 18.2026 31.5909 19.3526 33.6419L19.8399 34.5274C21.5651 37.6913 23.7098 41.6273 31.54 49.4562C39.3702 57.285 43.305 59.4299 46.4674 61.1549L47.3542 61.6435C49.405 62.7933 51.9893 62.2601 53.4175 60.3923L58.1917 54.2548C58.8599 53.4036 60.0693 53.2076 60.9724 53.8039L77.3656 64.7373C78.2859 65.3482 78.5619 66.5757 77.9917 67.5219Z" fill="black"/>
<path d="M45.8976 13.5071C58.5648 13.5212 68.83 23.7866 68.8442 36.4538C68.8442 37.1993 69.4485 37.8035 70.194 37.8035C70.9395 37.8035 71.5437 37.1993 71.5437 36.4538C71.5281 22.2962 60.0552 10.8231 45.8976 10.8076C45.1521 10.8076 44.5479 11.4119 44.5479 12.1574C44.5479 12.9029 45.1521 13.5071 45.8976 13.5071Z" fill="black"/>
<path d="M45.8976 21.6057C54.0938 21.6154 60.7358 28.2574 60.7455 36.4536C60.7455 37.1991 61.3499 37.8033 62.0952 37.8033C62.8407 37.8033 63.4449 37.1991 63.4449 36.4536C63.4337 26.767 55.584 18.9173 45.8976 18.9062C45.1521 18.9062 44.5479 19.5105 44.5479 20.256C44.5479 21.0015 45.1521 21.6057 45.8976 21.6057Z" fill="black"/>
<path d="M45.8976 29.7044C49.623 29.7088 52.6421 32.7278 52.6467 36.4534C52.6467 37.1989 53.2511 37.8032 53.9964 37.8032C54.7417 37.8032 55.3461 37.1989 55.3461 36.4534C55.3401 31.2376 51.1134 27.0107 45.8976 27.0049C45.1521 27.0049 44.5479 27.6091 44.5479 28.3546C44.5479 29.1001 45.1521 29.7044 45.8976 29.7044Z" fill="black"/>
</g>
<defs>
<clipPath id="clip0_928_120">
<rect width="81" height="81" fill="white"/>
</clipPath>
</defs>
</svg>
