<?xml version="1.0" encoding="utf-8"?>
<!-- Generator: Adobe Illustrator 23.0.0, SVG Export Plug-In . SVG Version: 6.00 Build 0)  -->
<svg version="1.1" id="Layer_1" xmlns="http://www.w3.org/2000/svg" xmlns:xlink="http://www.w3.org/1999/xlink" x="0px" y="0px"
	 width="100px" height="79.3px" viewBox="0 0 100 79.3" style="enable-background:new 0 0 100 79.3;" xml:space="preserve">
<style type="text/css">
	.st0{fill:#151515;}
	.st1{fill:none;}
</style>
<title>Ecommerce copia 3</title>
<path class="st0" d="M23.8,72.3H14c-0.6,0-1-0.4-1-1v-50c0-0.6,0.4-1,1-1h10v2h-9v48h8.8V72.3z"/>
<path class="st0" d="M30,78.3c-3.9,0-7-3.1-7-7s3.1-7,7-7s7,3.1,7,7S33.9,78.3,30,78.3z M30,66.3c-2.8,0-5,2.2-5,5s2.2,5,5,5
	s5-2.2,5-5S32.8,66.3,30,66.3z"/>
<path class="st0" d="M42,40.3c-10.5,0-19-8.5-19-19s8.5-19,19-19s19,8.5,19,19S52.5,40.3,42,40.3z M42,4.3c-9.4,0-17,7.6-17,17
	s7.6,17,17,17s17-7.6,17-17S51.4,4.3,42,4.3z"/>
<rect x="5" y="47.3" class="st0" width="16" height="2"/>
<rect x="70" y="70.3" class="st0" width="7" height="2"/>
<path class="st0" d="M98,72.3h-9v-2h8V55.6L86.5,39.3H70v-2h17c0.3,0,0.7,0.2,0.8,0.5l11,17c0.1,0.2,0.2,0.3,0.2,0.5v16
	C99,71.9,98.6,72.3,98,72.3z"/>
<path class="st0" d="M70,72.3H36.3v-2H69v-48h-9v-2h10c0.6,0,1,0.4,1,1v50C71,71.9,70.6,72.3,70,72.3z"/>
<path class="st0" d="M83,78.3c-3.9,0-7-3.1-7-7s3.1-7,7-7s7,3.1,7,7S86.9,78.3,83,78.3z M83,66.3c-2.8,0-5,2.2-5,5s2.2,5,5,5
	s5-2.2,5-5S85.8,66.3,83,66.3z"/>
<path class="st0" d="M91,56.3H77c-0.6,0-1-0.4-1-1v-10c0-0.6,0.4-1,1-1h8c0.4,0,0.7,0.2,0.9,0.5l6,10c0.3,0.5,0.1,1.1-0.4,1.4
	C91.4,56.3,91.2,56.3,91,56.3z M78,54.3h11.2l-4.8-8H78V54.3z"/>
<path class="st0" d="M47,24.9h-6c-0.6,0-1-0.4-1-1v-9h2v8h5V24.9z"/>
<rect x="1" y="37.3" class="st0" width="20" height="2"/>
<rect x="5" y="27.3" class="st0" width="16" height="2"/>
<rect y="-9.7" class="st1" width="100" height="100"/>
</svg>
