<?xml version="1.0" encoding="utf-8"?>
<!-- Generator: Adobe Illustrator 23.0.0, SVG Export Plug-In . SVG Version: 6.00 Build 0)  -->
<svg version="1.1"
	 id="Layer_1" image-rendering="optimizeQuality" shape-rendering="geometricPrecision" text-rendering="geometricPrecision" xmlns:xodm="http://www.corel.com/coreldraw/odm/2003"
	 xmlns="http://www.w3.org/2000/svg" xmlns:xlink="http://www.w3.org/1999/xlink" x="0px" y="0px" width="512px" height="512px"
	 viewBox="0 0 512 512" style="enable-background:new 0 0 512 512;" xml:space="preserve">
<style type="text/css">
	.st0{fill-rule:evenodd;clip-rule:evenodd;}
</style>
<g id="Layer_x0020_1">
	<path class="st0" d="M297.3,395.5c-3.8,0-6.6-3.5-5.9-7.2l3.1-16.5l-12.2-11.5c-3.7-3.5-1.7-9.7,3.4-10.3l16.6-2.1l7.1-15.1
		c2.2-4.6,8.7-4.6,10.8,0l7.1,15.1l16.6,2.1c5.1,0.6,7,6.9,3.4,10.3l-12.2,11.5l3.1,16.5c1,5-4.4,8.9-8.8,6.4l-14.7-8.1
		C311,388.8,300.1,395.5,297.3,395.5L297.3,395.5z M314.8,373.9c2.4,0,6.5,2.8,9.2,4.3c-2.2-11.6-2.9-9.5,5.7-17.6
		c-11.7-1.5-9.9-0.2-15-10.9c-5,10.7-3.2,9.4-15,10.9c8.6,8.1,7.9,6,5.7,17.6C308.2,376.6,312.4,373.9,314.8,373.9L314.8,373.9z"/>
	<path class="st0" d="M395.9,512H51.5c-7.9,0-7.9-12,0-12h344.5c12.4,0,22.4-10,22.4-22.4V105.1c0-7.9,12-7.9,12,0v372.5
		C430.3,496.6,414.9,512,395.9,512z M87.7,413.5c-3.3,0-6-2.5-6-5.8V34.4c0-19,15.4-34.4,34.4-34.4h344.5c7.9,0,7.9,12,0,12H116.1
		c-12.4,0-22.4,10-22.4,22.4v372.9C93.7,410.6,91,413.5,87.7,413.5L87.7,413.5z"/>
	<path class="st0" d="M496.8,111.4h-72.4c-3.3,0-6-2.7-6-6V42.2c0-23.3,19-42.2,42.2-42.2s42.2,19,42.2,42.2v63.2
		C502.7,108.8,500.1,111.4,496.8,111.4L496.8,111.4z M430.3,99.4h60.5V42.2c0-16.7-13.5-30.2-30.2-30.2c-16.7,0-30.2,13.5-30.2,30.2
		L430.3,99.4L430.3,99.4L430.3,99.4z"/>
	<path class="st0" d="M51.5,512c-23.3,0-42.2-19-42.2-42.2v-63.2c0-3.3,2.7-6,6-6h72.4c3.3,0,6,2.7,6,6v63.2
		C93.7,493,74.8,512,51.5,512L51.5,512z M21.2,412.6v57.2c0,16.7,13.5,30.2,30.2,30.2c16.7,0,30.2-13.5,30.2-30.2v-57.2H21.2
		L21.2,412.6z"/>
	<g>
		<path class="st0" d="M357.6,120H154.5c-7.9,0-7.9-12,0-12h203.1C365.5,108,365.5,120,357.6,120z"/>
		<path class="st0" d="M357.6,191H154.5c-7.9,0-7.9-12,0-12h203.1C365.5,179,365.5,191,357.6,191z"/>
		<path class="st0" d="M357.6,262H154.5c-7.9,0-7.9-12,0-12h203.1C365.5,250,365.5,262,357.6,262z"/>
		<path class="st0" d="M246.6,333h-92.2c-7.9,0-7.9-12,0-12h92.2C254.5,321,254.5,333,246.6,333L246.6,333z"/>
		<path class="st0" d="M246.6,404h-92.2c-7.9,0-7.9-12,0-12h92.2C254.5,392,254.5,404,246.6,404L246.6,404z"/>
	</g>
	<path class="st0" d="M314.8,416.1c-29.5,0-53.6-24-53.6-53.6s24-53.6,53.6-53.6s53.6,24,53.6,53.6S344.3,416.1,314.8,416.1z
		 M314.8,321c-22.9,0-41.6,18.7-41.6,41.6c0,22.9,18.7,41.6,41.6,41.6c22.9,0,41.6-18.7,41.6-41.6C356.4,339.6,337.7,321,314.8,321z
		"/>
	<path class="st0" d="M293,471.1c-2,0-3.9-1-5-2.8l-10.8-16.8l-19.3,5c-4.7,1.2-8.9-3.4-7.1-8l22.4-57.3c1.6-4.2,7.2-5.2,10.1-1.7
		c7.8,9.2,19.3,14.5,31.3,14.5c4.2,0,7.1,4.3,5.5,8.2l-21.5,55C297.6,469.5,295.1,471.1,293,471.1L293,471.1z M279.8,438.7
		c4.9,0,7.8,7,11.9,13.3l14.3-36.6c-9.2-1.5-17.8-5.5-25-11.3l-14.8,38L279.8,438.7L279.8,438.7z"/>
	<path class="st0" d="M336.6,472.9c-2.5,0-4.7-1.6-5.6-3.8l-22.2-56.8c-1.5-4,1.4-8.2,5.7-8.2c12.2,0,23.5-5.1,31.5-14.1
		c3-3.4,8.5-2.3,10.1,1.8l22.9,58.5c1.8,4.6-2.4,9.2-7.1,8l-19.3-5l-10.8,16.7C340.5,471.8,338.7,472.9,336.6,472.9L336.6,472.9z
		 M323,415.5l15,38.3c10.5-16.2,6.8-14.8,25.5-10l-15.4-39.3C340.8,410.3,332.2,414,323,415.5L323,415.5z"/>
</g>
</svg>
